<?xml version="1.0" standalone="no"?>
<!DOCTYPE svg PUBLIC "-//W3C//DTD SVG 1.1//EN" "http://www.w3.org/Graphics/SVG/1.1/DTD/svg11.dtd" >
<svg>
<metadata>
Created by FontForge 20110222 at Mon Mar  7 12:55:35 2011
 By www-data
Copyright tgncc1701 2010
</metadata>
<defs>
<font id="Pokemon-Generation-1" horiz-adv-x="1024" >
  <font-face 
    font-family="Pokemon Generation 1"
    font-weight="400"
    font-stretch="normal"
    units-per-em="1024"
    panose-1="0 0 4 0 0 0 0 0 0 0"
    ascent="896"
    descent="-128"
    x-height="640"
    cap-height="896"
    bbox="0 -256 1024 1024"
    underline-thickness="51"
    underline-position="127"
    unicode-range="U+0020-201D"
  />
    <missing-glyph />
    <glyph glyph-name="space" unicode=" " horiz-adv-x="384" 
 />
    <glyph glyph-name="exclam" unicode="!" horiz-adv-x="640" 
d="M128 0v256h256v-256h-256zM128 384v128h-128v384h128v128h256v-128h128v-384h-128v-128h-256z" />
    <glyph glyph-name="quotedbl" unicode="&#x22;" 
d="M384 384v128h128v-128h-128zM0 512v128h128v-128h-128zM512 512v128h128v128h256v-128h-128v-128h-256zM128 640v128h128v128h256v-128h-128v-128h-256z" />
    <glyph glyph-name="numbersign" unicode="#" horiz-adv-x="768" 
d="M256 0v256h-256v128h256v128h-128v128h384v-128h-128v-128h256v-128h-256v-256h-128zM0 640v256h128v-256h-128zM512 640v256h128v-256h-128zM128 896v128h384v-128h-384z" />
    <glyph glyph-name="dollar" unicode="$" 
d="M768 0v256h128v-256h-128zM512 0v640h128v-256h128v-128h-128v-256h-128zM768 384v256h128v-256h-128zM256 768v128h-128v-128h128zM0 384v640h384v-384h-256v-256h-128z" />
    <glyph glyph-name="percent" unicode="%" 
d="M384 0v512h128v-128h128v-128h-128v-256h-128zM768 0v128h-128v128h128v256h128v-512h-128zM256 768v128h128v-128h-128zM0 384v640h256v-128h-128v-512h-128zM512 512v384h-128v128h256v-512h-128z" />
    <glyph glyph-name="ampersand" unicode="&#x26;" horiz-adv-x="896" 
d="M256 0v128h256v-128h-256zM128 128v128h128v-128h-128zM512 128v128h128v-128h-128zM0 256v256h128v128h128v-128h128v128h-128v128h256v-128h128v-128h128v-256h-128v128h-512v-128h-128z" />
    <glyph glyph-name="quotesingle" unicode="'" horiz-adv-x="640" 
d="M0 512v128h128v-128h-128zM128 640v128h128v128h256v-128h-128v-128h-256z" />
    <glyph glyph-name="parenleft" unicode="(" horiz-adv-x="640" 
d="M256 0v128h256v-128h-256zM128 128v128h128v-128h-128zM0 256v384h128v-384h-128zM128 640v128h128v-128h-128zM256 768v128h256v-128h-256z" />
    <glyph glyph-name="parenright" unicode=")" horiz-adv-x="640" 
d="M0 0v128h256v-128h-256zM256 128v128h128v-128h-128zM384 256v384h128v-384h-128zM256 640v128h128v-128h-128zM0 768v128h256v-128h-256z" />
    <glyph glyph-name="asterisk" unicode="*" horiz-adv-x="768" 
d="M0 0v128h128v-128h-128zM512 0v128h128v-128h-128zM128 128v128h128v-128h-128zM384 128v128h128v-128h-128zM256 256v128h128v-128h-128zM128 384v128h128v-128h-128zM384 384v128h128v-128h-128zM0 512v128h128v-128h-128zM512 512v128h128v-128h-128z" />
    <glyph glyph-name="plus" unicode="+" horiz-adv-x="768" 
d="M256 0v256h-256v128h256v256h128v-256h256v-128h-256v-256h-128z" />
    <glyph glyph-name="comma" unicode="," horiz-adv-x="384" 
d="M0 -256v128h128v-128h-128zM128 -128v128h-128v256h256v-384h-128z" />
    <glyph glyph-name="hyphen" unicode="-" horiz-adv-x="768" 
d="M0 256v128h640v-128h-640z" />
    <glyph glyph-name="period" unicode="." horiz-adv-x="384" 
d="M0 0v256h256v-256h-256z" />
    <glyph glyph-name="slash" unicode="/" 
d="M0 0v128h128v-128h-128zM128 128v128h128v-128h-128zM256 256v128h128v-128h-128zM384 384v128h128v-128h-128zM512 512v128h128v-128h-128zM640 640v128h128v-128h-128zM768 768v128h128v-128h-128z" />
    <glyph glyph-name="zero" unicode="0" 
d="M256 0v128h-128v128h-128v256h128v128h128v-384h128v-128h256v-128h-384zM640 128v384h-128v128h-256v128h384v-128h128v-128h128v-256h-128v-128h-128z" />
    <glyph glyph-name="one" unicode="1" horiz-adv-x="896" 
d="M0 0v128h256v384h-128v128h128v128h256v-640h256v-128h-768z" />
    <glyph glyph-name="two" unicode="2" 
d="M0 0v256h128v128h384v128h128v128h-384v-128h-256v128h128v128h640v-128h128v-256h-256v-128h-256v-128h512v-128h-896z" />
    <glyph glyph-name="three" unicode="3" 
d="M128 0v128h-128v128h256v-128h384v256h256v-256h-128v-128h-640zM256 384v128h256v128h-384v128h768v-128h-128v-128h-128v-128h-384z" />
    <glyph glyph-name="four" unicode="4" 
d="M512 256v256h-128v-128h-128v-128h256zM512 0v128h-512v256h128v128h128v128h128v128h384v-512h128v-128h-128v-128h-256z" />
    <glyph glyph-name="five" unicode="5" 
d="M128 0v128h-128v128h256v-128h384v256h-640v384h768v-128h-512v-128h512v-128h128v-256h-128v-128h-640z" />
    <glyph glyph-name="six" unicode="6" 
d="M640 128v256h-384v-256h384zM128 0v128h-128v512h128v128h640v-128h-512v-128h512v-128h128v-256h-128v-128h-640z" />
    <glyph glyph-name="seven" unicode="7" 
d="M256 0v256h128v128h128v128h128v128h-384v-128h-256v256h896v-256h-128v-128h-128v-128h-128v-256h-256z" />
    <glyph glyph-name="eight" unicode="8" 
d="M640 128v256h-384v-256h384zM640 512v128h-384v-128h384zM128 0v128h-128v256h128v128h-128v128h128v128h640v-128h128v-128h-128v-128h128v-256h-128v-128h-640z" />
    <glyph glyph-name="nine" unicode="9" 
d="M640 384v256h-384v-256h384zM128 0v128h512v128h-512v128h-128v256h128v128h640v-128h128v-512h-128v-128h-640z" />
    <glyph glyph-name="colon" unicode=":" horiz-adv-x="256" 
d="M0 128v128h128v-128h-128zM0 512v128h128v-128h-128z" />
    <glyph glyph-name="semicolon" unicode=";" horiz-adv-x="256" 
d="M0 0v256h128v-256h-128zM0 512v128h128v-128h-128z" />
    <glyph glyph-name="less" unicode="&#x3c;" horiz-adv-x="768" 
d="M384 0v128h256v-128h-256zM128 128v128h256v-128h-256zM0 256v128h128v-128h-128zM128 384v128h256v-128h-256zM384 512v128h256v-128h-256z" />
    <glyph glyph-name="equal" unicode="=" horiz-adv-x="768" 
d="M0 128v128h640v-128h-640zM0 384v128h640v-128h-640z" />
    <glyph glyph-name="greater" unicode="&#x3e;" horiz-adv-x="768" 
d="M0 0v128h256v-128h-256zM256 128v128h256v-128h-256zM512 256v128h128v-128h-128zM256 384v128h256v-128h-256zM0 512v128h256v-128h-256z" />
    <glyph glyph-name="question" unicode="?" horiz-adv-x="1152" 
d="M384 0v256h256v-256h-256zM384 384v128h128v128h128v128h-256v-128h-128v-128h-256v256h128v128h768v-128h128v-128h-128v-128h-256v-128h-256z" />
    <glyph glyph-name="at" unicode="@" 
d="M256 0v128h384v-128h-384zM128 128v256h128v-256h-128zM640 128v256h128v-256h-128zM0 512v128h128v-128h-128zM768 512v128h128v-128h-128zM128 640v128h128v-128h-128zM640 640v128h128v-128h-128zM256 384v128h128v256h-128v128h128v128h128v-128h128v-128h-128v-256
h128v-128h-384z" />
    <glyph glyph-name="A" unicode="A" 
d="M0 0v256h128v-256h-128zM768 0v256h128v-256h-128zM128 256v256h128v-128h384v128h128v-256h-640zM256 512v256h128v-256h-128zM512 512v256h128v-256h-128zM384 768v128h128v-128h-128z" />
    <glyph glyph-name="B" unicode="B" 
d="M768 128v256h128v-256h-128zM0 0v896h640v-128h-512v-256h512v256h128v-384h-640v-256h640v-128h-768z" />
    <glyph glyph-name="C" unicode="C" 
d="M256 0v128h512v-128h-512zM128 128v128h128v-128h-128zM768 128v128h128v-128h-128zM0 256v384h128v-384h-128zM128 640v128h128v-128h-128zM768 640v128h128v-128h-128zM256 768v128h512v-128h-512z" />
    <glyph glyph-name="D" unicode="D" 
d="M640 128v128h128v-128h-128zM768 256v384h128v-384h-128zM640 640v128h128v-128h-128zM0 0v896h640v-128h-512v-640h512v-128h-640z" />
    <glyph glyph-name="E" unicode="E" 
d="M0 0v896h896v-128h-768v-256h640v-128h-640v-256h768v-128h-896z" />
    <glyph glyph-name="F" unicode="F" 
d="M0 0v896h896v-128h-768v-256h640v-128h-640v-384h-128z" />
    <glyph glyph-name="G" unicode="G" 
d="M256 0v128h512v-128h-512zM128 128v128h128v-128h-128zM768 128v256h-384v128h512v-384h-128zM0 256v384h128v-384h-128zM128 640v128h128v-128h-128zM768 640v128h128v-128h-128zM256 768v128h512v-128h-512z" />
    <glyph glyph-name="H" unicode="H" 
d="M0 0v896h128v-384h640v384h128v-896h-128v384h-640v-384h-128z" />
    <glyph glyph-name="I" unicode="I" horiz-adv-x="768" 
d="M0 0v128h256v640h-256v128h640v-128h-256v-640h256v-128h-640z" />
    <glyph glyph-name="J" unicode="J" 
d="M128 0v128h384v-128h-384zM0 128v256h128v-256h-128zM512 128v640h-384v128h768v-128h-256v-640h-128z" />
    <glyph glyph-name="K" unicode="K" 
d="M768 0v128h128v-128h-128zM640 128v128h128v-128h-128zM512 256v128h128v-128h-128zM256 384v128h128v128h128v-256h-256zM512 640v128h128v-128h-128zM0 0v896h128v-512h128v-128h-128v-256h-128zM640 768v128h128v-128h-128z" />
    <glyph glyph-name="L" unicode="L" 
d="M0 0v896h128v-768h768v-128h-896z" />
    <glyph glyph-name="M" unicode="M" 
d="M384 384v128h128v-128h-128zM256 512v128h128v-128h-128zM512 512v128h128v-128h-128zM0 0v896h128v-128h128v-128h-128v-640h-128zM768 0v640h-128v128h128v128h128v-896h-128z" />
    <glyph glyph-name="N" unicode="N" 
d="M512 256v128h128v-128h-128zM384 384v128h128v-128h-128zM256 512v128h128v-128h-128zM0 0v896h128v-128h128v-128h-128v-640h-128zM768 0v128h-128v128h128v640h128v-896h-128z" />
    <glyph glyph-name="O" unicode="O" 
d="M256 0v128h384v-128h-384zM128 128v128h128v-128h-128zM640 128v128h128v-128h-128zM0 256v384h128v-384h-128zM768 256v384h128v-384h-128zM128 640v128h128v-128h-128zM640 640v128h128v-128h-128zM256 768v128h384v-128h-384z" />
    <glyph glyph-name="P" unicode="P" 
d="M768 512v256h128v-256h-128zM0 0v896h768v-128h-640v-256h640v-128h-640v-384h-128z" />
    <glyph glyph-name="Q" unicode="Q" 
d="M256 0v128h384v-128h-384zM768 0v128h128v-128h-128zM128 128v128h128v-128h-128zM640 128v128h128v-128h-128zM512 256v128h128v-128h-128zM0 256v384h128v-384h-128zM768 256v384h128v-384h-128zM128 640v128h128v-128h-128zM640 640v128h128v-128h-128zM256 768v128
h384v-128h-384z" />
    <glyph glyph-name="R" unicode="R" 
d="M768 0v128h128v-128h-128zM640 128v128h128v-128h-128zM768 512v256h128v-256h-128zM0 0v896h768v-128h-640v-256h640v-128h-128v-128h-128v128h-384v-384h-128z" />
    <glyph glyph-name="S" unicode="S" 
d="M128 0v128h640v-128h-640zM0 128v128h128v-128h-128zM768 128v256h128v-256h-128zM128 384v128h640v-128h-640zM0 512v256h128v-256h-128zM640 640v128h128v-128h-128zM128 768v128h512v-128h-512z" />
    <glyph glyph-name="T" unicode="T" 
d="M384 0v768h-384v128h896v-128h-384v-768h-128z" />
    <glyph glyph-name="U" unicode="U" 
d="M128 128v128h128v-128h-128zM0 256v640h128v-640h-128zM256 0v128h512v768h128v-896h-640z" />
    <glyph glyph-name="V" unicode="V" 
d="M384 0v128h128v-128h-128zM256 128v256h128v-256h-128zM512 128v256h128v-256h-128zM128 384v256h128v-256h-128zM640 384v256h128v-256h-128zM0 640v256h128v-256h-128zM768 640v256h128v-256h-128z" />
    <glyph glyph-name="W" unicode="W" 
d="M256 384v256h128v-256h-128zM512 384v256h128v-256h-128zM384 640v128h128v-128h-128zM0 0v896h128v-512h128v-256h-128v-128h-128zM768 0v128h-128v256h128v512h128v-896h-128z" />
    <glyph glyph-name="X" unicode="X" 
d="M0 0v128h128v128h128v-256h-256zM640 0v256h128v-128h128v-128h-256zM256 256v128h128v-128h-128zM512 256v128h128v-128h-128zM384 384v128h128v-128h-128zM256 512v128h128v-128h-128zM512 512v128h128v-128h-128zM128 640v128h-128v128h256v-256h-128zM640 640v256
h256v-128h-128v-128h-128z" />
    <glyph glyph-name="Y" unicode="Y" 
d="M384 0v512h128v-512h-128zM256 512v128h128v-128h-128zM512 512v128h128v-128h-128zM128 640v128h128v-128h-128zM640 640v128h128v-128h-128zM0 768v128h128v-128h-128zM768 768v128h128v-128h-128z" />
    <glyph glyph-name="Z" unicode="Z" 
d="M0 0v128h128v128h128v-128h640v-128h-896zM256 256v128h128v-128h-128zM384 384v128h128v-128h-128zM512 512v128h128v-128h-128zM640 640v128h-640v128h896v-128h-128v-128h-128z" />
    <glyph glyph-name="bracketleft" unicode="[" horiz-adv-x="512" 
d="M0 0v896h384v-128h-256v-640h256v-128h-384z" />
    <glyph glyph-name="backslash" unicode="\" 
d="M768 0v128h128v-128h-128zM640 128v128h128v-128h-128zM512 256v128h128v-128h-128zM384 384v128h128v-128h-128zM256 512v128h128v-128h-128zM128 640v128h128v-128h-128zM0 768v128h128v-128h-128z" />
    <glyph glyph-name="bracketright" unicode="]" horiz-adv-x="512" 
d="M0 0v128h256v640h-256v128h384v-896h-384z" />
    <glyph glyph-name="asciicircum" unicode="^" horiz-adv-x="1152" 
d="M896 128v384h128v-384h-128zM512 0v384h-512v640h512v-128h-256v-128h256v-128h-256v-128h256v128h384v-128h-128v-384h128v-128h-384z" />
    <glyph glyph-name="underscore" unicode="_" horiz-adv-x="768" 
d="M0 0v128h640v-128h-640z" />
    <glyph glyph-name="grave" unicode="`" horiz-adv-x="384" 
d="M128 640v128h128v-128h-128zM0 768v128h128v-128h-128z" />
    <glyph glyph-name="a" unicode="a" horiz-adv-x="896" 
d="M0 128v128h128v-128h-128zM128 0v128h384v128h-384v128h384v128h128v-384h128v-128h-640zM128 512v128h384v-128h-384z" />
    <glyph glyph-name="b" unicode="b" horiz-adv-x="896" 
d="M640 128v256h128v-256h-128zM0 0v896h128v-384h512v-128h-512v-256h512v-128h-640z" />
    <glyph glyph-name="c" unicode="c" horiz-adv-x="896" 
d="M128 0v128h512v-128h-512zM640 128v128h128v-128h-128zM0 128v384h128v-384h-128zM640 384v128h128v-128h-128zM128 512v128h512v-128h-512z" />
    <glyph glyph-name="d" unicode="d" horiz-adv-x="896" 
d="M0 128v256h128v-256h-128zM128 0v128h512v256h-512v128h512v384h128v-896h-640z" />
    <glyph glyph-name="e" unicode="e" horiz-adv-x="896" 
d="M128 0v128h640v-128h-640zM0 128v384h128v-128h512v128h128v-256h-640v-128h-128zM128 512v128h512v-128h-512z" />
    <glyph glyph-name="f" unicode="f" horiz-adv-x="896" 
d="M256 0v384h-256v128h256v256h128v-256h384v-128h-384v-384h-128zM640 640v128h128v-128h-128zM384 768v128h256v-128h-256z" />
    <glyph glyph-name="g" unicode="g" horiz-adv-x="896" 
d="M0 -128v128h640v-128h-640zM0 256v256h128v-256h-128zM640 0v128h-512v128h512v256h-512v128h640v-640h-128z" />
    <glyph glyph-name="h" unicode="h" horiz-adv-x="768" 
d="M512 0v384h128v-384h-128zM0 0v896h128v-384h384v-128h-384v-384h-128z" />
    <glyph glyph-name="i" unicode="i" horiz-adv-x="256" 
d="M0 0v512h128v-512h-128zM0 640v128h128v-128h-128z" />
    <glyph glyph-name="j" unicode="j" horiz-adv-x="512" 
d="M0 -128v128h256v-128h-256zM256 0v512h128v-512h-128zM256 640v128h128v-128h-128z" />
    <glyph glyph-name="k" unicode="k" horiz-adv-x="896" 
d="M512 0v128h256v-128h-256zM256 128v128h256v-128h-256zM256 384v128h256v-128h-256zM512 512v128h256v-128h-256zM0 0v896h128v-512h128v-128h-128v-256h-128z" />
    <glyph glyph-name="l" unicode="l" horiz-adv-x="256" 
d="M0 0v896h128v-896h-128z" />
    <glyph glyph-name="m" unicode="m" 
d="M384 0v512h128v-512h-128zM768 0v512h128v-512h-128zM0 0v640h384v-128h-256v-512h-128zM512 512v128h256v-128h-256z" />
    <glyph glyph-name="n" unicode="n" horiz-adv-x="768" 
d="M512 0v512h128v-512h-128zM0 0v640h512v-128h-384v-512h-128z" />
    <glyph glyph-name="o" unicode="o" horiz-adv-x="896" 
d="M128 0v128h512v-128h-512zM0 128v384h128v-384h-128zM640 128v384h128v-384h-128zM128 512v128h512v-128h-512z" />
    <glyph glyph-name="p" unicode="p" horiz-adv-x="896" 
d="M640 256v256h128v-256h-128zM0 -128v768h640v-128h-512v-256h512v-128h-512v-256h-128z" />
    <glyph glyph-name="q" unicode="q" horiz-adv-x="896" 
d="M0 256v256h128v-256h-128zM640 -128v256h-512v128h512v256h-512v128h640v-768h-128z" />
    <glyph glyph-name="r" unicode="r" horiz-adv-x="896" 
d="M256 384v128h128v-128h-128zM0 0v640h128v-256h128v-128h-128v-256h-128zM384 512v128h384v-128h-384z" />
    <glyph glyph-name="s" unicode="s" horiz-adv-x="896" 
d="M0 0v128h640v-128h-640zM640 128v128h128v-128h-128zM128 256v128h512v-128h-512zM0 384v128h128v-128h-128zM128 512v128h512v-128h-512z" />
    <glyph glyph-name="t" unicode="t" horiz-adv-x="768" 
d="M384 0v128h256v-128h-256zM256 128v384h-256v128h256v128h128v-128h256v-128h-256v-384h-128z" />
    <glyph glyph-name="u" unicode="u" horiz-adv-x="768" 
d="M0 128v512h128v-512h-128zM128 0v128h384v512h128v-640h-512z" />
    <glyph glyph-name="v" unicode="v" horiz-adv-x="768" 
d="M256 0v128h128v-128h-128zM128 128v128h128v-128h-128zM384 128v128h128v-128h-128zM0 256v384h128v-384h-128zM512 256v384h128v-384h-128z" />
    <glyph glyph-name="w" unicode="w" 
d="M128 0v128h128v-128h-128zM640 0v128h128v-128h-128zM256 128v128h128v-128h-128zM512 128v128h128v-128h-128zM384 256v256h128v-256h-128zM0 128v512h128v-512h-128zM768 128v512h128v-512h-128z" />
    <glyph glyph-name="x" unicode="x" 
d="M128 0v128h128v-128h-128zM640 0v128h256v-128h-256zM256 128v128h128v-128h-128zM512 128v128h128v-128h-128zM384 256v128h128v-128h-128zM256 384v128h128v-128h-128zM512 384v128h128v-128h-128zM0 512v128h256v-128h-256zM640 512v128h128v-128h-128z" />
    <glyph glyph-name="y" unicode="y" horiz-adv-x="768" 
d="M0 -128v128h512v-128h-512zM0 256v384h128v-384h-128zM512 0v128h-384v128h384v384h128v-640h-128z" />
    <glyph glyph-name="z" unicode="z" horiz-adv-x="896" 
d="M0 0v128h128v128h128v-128h512v-128h-768zM256 256v128h256v-128h-256zM512 384v128h-512v128h768v-128h-128v-128h-128z" />
    <glyph glyph-name="braceleft" unicode="{" horiz-adv-x="512" 
d="M256 0v128h128v-128h-128zM128 128v256h-128v128h128v256h128v-640h-128zM256 768v128h128v-128h-128z" />
    <glyph glyph-name="bar" unicode="|" horiz-adv-x="512" 
d="M256 0v896h128v-896h-128z" />
    <glyph glyph-name="braceright" unicode="}" horiz-adv-x="512" 
d="M0 0v128h128v-128h-128zM128 128v640h128v-256h128v-128h-128v-256h-128zM0 768v128h128v-128h-128z" />
    <glyph glyph-name="asciitilde" unicode="~" horiz-adv-x="768" 
d="M384 128v128h128v-128h-128zM0 128v256h128v-256h-128zM256 256v128h128v-128h-128zM128 384v128h128v-128h-128zM512 256v256h128v-256h-128z" />
    <glyph glyph-name="quoteleft" unicode="&#x2018;" horiz-adv-x="640" 
d="M384 512v128h128v-128h-128zM128 640v128h-128v128h256v-128h128v-128h-256z" />
    <glyph glyph-name="quoteright" unicode="&#x2019;" horiz-adv-x="640" 
d="M0 512v128h128v-128h-128zM128 640v128h128v128h256v-128h-128v-128h-256z" />
    <glyph glyph-name="quotedblleft" unicode="&#x201c;" 
d="M384 384v128h128v-128h-128zM768 512v128h128v-128h-128zM128 512v128h-128v128h256v-128h128v-128h-256zM512 640v128h-128v128h256v-128h128v-128h-256z" />
    <glyph glyph-name="quotedblright" unicode="&#x201d;" 
d="M384 384v128h128v-128h-128zM0 512v128h128v-128h-128zM512 512v128h128v128h256v-128h-128v-128h-256zM128 640v128h128v128h256v-128h-128v-128h-256z" />
  </font>
</defs>
</svg>
